<?xml version="1.0" encoding="UTF-8"?>
<svg width="32" height="32" viewBox="0 0 32 32" fill="none" xmlns="http://www.w3.org/2000/svg">
  <rect width="32" height="32" rx="8" fill="#1E293B"/>
  <path d="M16 8C18.2091 8 20 9.79086 20 12V14H21C21.5523 14 22 14.4477 22 15V22C22 22.5523 21.5523 23 21 23H11C10.4477 23 10 22.5523 10 22V15C10 14.4477 10.4477 14 11 14H12V12C12 9.79086 13.7909 8 16 8ZM16 15C15.4477 15 15 15.4477 15 16V21C15 21.5523 15.4477 22 16 22C16.5523 22 17 21.5523 17 21V16C17 15.4477 16.5523 15 16 15ZM16 10C14.8954 10 14 10.8954 14 12V14H18V12C18 10.8954 17.1046 10 16 10Z" fill="#22D3EE"/>
</svg> 